# xmcd
#
# Track frame offsets:
#   150
#   16065
#   29152
#   48139
#   57336
#   65268
#   75692
#   96332
#   108486
#   120556
#   131290
#   142542
#   155232
#   167896
#
# Disc length: 2428 seconds
#
# Revision: 0
# Processed by: cddbd v1.5PL3 Copyright (c) Steve Scherf et al.
# Submitted via: Media_Universe 3.0
#
DISCID=b4097a0e
DTITLE=Wild Palms - Cover your legs
DYEAR=1900
DGENRE=Blues
TTITLE0=Stay drunk
TTITLE1=Do the do
TTITLE2=Tell you now
TTITLE3=Looking for power
TTITLE4=Two legs
TTITLE5=Hello Josephine
TTITLE6=Blues for Val Lewton
TTITLE7=Snetch it back
TTITLE8=Who will stand
TTITLE9=Jealousy
TTITLE10=Talk about the machines
TTITLE11=Le Baton livre
TTITLE12=Hand over hand
TTITLE13=Like iron, like rain
EXTD=
EXTT0=
EXTT1=
EXTT2=
EXTT3=
EXTT4=
EXTT5=
EXTT6=
EXTT7=
EXTT8=
EXTT9=
EXTT10=
EXTT11=
EXTT12=
EXTT13=
PLAYORDER=
